<?xml version="1.0" encoding="UTF-8"?>
<!-- Generated by Pixelmator Pro 3.7.1 -->
<svg width="64" height="64" viewBox="0 0 64 64" xmlns="http://www.w3.org/2000/svg">
    <path id="Path" fill="#2455a5" stroke="none" d="M 12 0 L 52 0 C 58.627419 0 64 5.372581 64 12 L 64 52 C 64 58.627419 58.627419 64 52 64 L 12 64 C 5.372583 64 0 58.627419 0 52 L 0 12 C -0 5.372581 5.372583 0 12 0 Z"/>
    <path id="Speaker" fill="#ffffff" fill-rule="evenodd" stroke="#ffffff" stroke-width="2" stroke-linecap="round" stroke-linejoin="round" d="M 44.273823 43.654209 C 43.983242 44.057835 43.423012 44.154518 43.013954 43.871651 C 42.817879 43.737961 42.683914 43.530941 42.642288 43.297318 C 42.600647 43.063683 42.654858 42.823135 42.792679 42.62994 C 47.347813 36.282406 47.347813 27.736912 42.792679 21.389374 C 42.654858 21.196182 42.600647 20.955631 42.642288 20.722 C 42.683914 20.488373 42.817879 20.281353 43.013954 20.147663 C 43.423012 19.864792 43.983242 19.961483 44.273823 20.365105 C 49.242058 27.333241 49.242058 36.686077 44.273823 43.654209 Z M 38.40678 40.673103 C 38.210564 40.539009 38.076569 40.331612 38.034943 40.09763 C 37.99332 39.863647 38.047577 39.622761 38.185505 39.429222 C 41.379734 34.998817 41.379734 29.021263 38.185505 24.590858 C 38.047577 24.39732 37.99332 24.156437 38.034943 23.922451 C 38.076569 23.688469 38.210564 23.481071 38.40678 23.346977 C 38.816792 23.063778 39.378052 23.160786 39.669212 23.565182 C 43.272747 28.618458 43.272747 35.401627 39.669212 40.454899 C 39.378052 40.859299 38.816792 40.956303 38.40678 40.673103 Z M 33.804729 37.477379 C 33.607998 37.342667 33.473614 37.134583 33.431767 36.899849 C 33.389923 36.665115 33.444118 36.423409 33.582172 36.229015 C 35.410358 33.713444 35.410358 30.306637 33.582172 27.791065 C 33.444118 27.596672 33.389923 27.354965 33.431767 27.120232 C 33.473614 26.885498 33.607998 26.677418 33.804729 26.542706 C 34.215099 26.258453 34.777622 26.355919 35.068439 26.761677 C 37.302513 29.903965 37.302513 34.116119 35.068439 37.258408 C 34.777622 37.664162 34.215099 37.761627 33.804729 37.477379 Z M 28.174309 42.882042 C 27.831919 42.882614 27.501163 42.757866 27.244429 42.531326 C 26.951521 42.273468 21.267389 36.870464 21.267389 36.870464 L 17.1744 36.870464 C 15.973518 36.870464 15 35.896957 15 34.696064 L 15 29.324017 C 15 28.123127 15.973518 27.149616 17.1744 27.149616 L 21.267389 27.149616 C 21.267389 27.149616 26.951521 21.746616 27.244429 21.488758 C 27.659389 21.12331 28.249939 21.034809 28.753803 21.262558 C 29.257668 21.490299 29.581413 21.992058 29.581272 22.545006 L 29.581272 41.475079 C 29.581272 42.252121 28.951345 42.882042 28.174309 42.882042 Z"/>
    <g id="Group">
        <path id="path1" fill="#f1b81e" stroke="none" d="M 33.890625 7.431252 C 33.890625 8.332165 33.16029 9.0625 32.259373 9.0625 C 31.358459 9.0625 30.628122 8.332165 30.628122 7.431252 C 30.628122 6.530334 31.358459 5.799999 32.259373 5.799999 C 33.16029 5.799999 33.890625 6.530334 33.890625 7.431252 Z"/>
        <path id="path2" fill="#f1b81e" stroke="none" d="M 46.125 10.693752 C 46.125 11.594662 45.394665 12.324997 44.493748 12.324997 C 43.592834 12.324997 42.862499 11.594662 42.862499 10.693752 C 42.862499 9.792835 43.592834 9.0625 44.493748 9.0625 C 45.394665 9.0625 46.125 9.792835 46.125 10.693752 Z"/>
        <path id="path3" fill="#f1b81e" stroke="none" d="M 56.456249 20.209377 C 56.456249 21.110294 55.725914 21.840622 54.824997 21.840622 C 53.924088 21.840622 53.193752 21.110294 53.193752 20.209377 C 53.193752 19.30846 53.924088 18.578125 54.824997 18.578125 C 55.725914 18.578125 56.456249 19.30846 56.456249 20.209377 Z"/>
        <path id="path4" fill="#f1b81e" stroke="none" d="M 59.71875 31.900002 C 59.71875 32.800915 58.988415 33.53125 58.087498 33.53125 C 57.186584 33.53125 56.456249 32.800915 56.456249 31.900002 C 56.456249 30.999084 57.186584 30.268749 58.087498 30.268749 C 58.988415 30.268749 59.71875 30.999084 59.71875 31.900002 Z"/>
        <path id="path5" fill="#f1b81e" stroke="none" d="M 56.456249 43.590622 C 56.456249 44.491539 55.725914 45.22187 54.824997 45.22187 C 53.924088 45.22187 53.193752 44.491539 53.193752 43.590622 C 53.193752 42.689705 53.924088 41.959377 54.824997 41.959377 C 55.725914 41.959377 56.456249 42.689705 56.456249 43.590622 Z"/>
        <path id="path6" fill="#f1b81e" stroke="none" d="M 46.125 53.106247 C 46.125 54.007164 45.394665 54.737499 44.493748 54.737499 C 43.592834 54.737499 42.862499 54.007164 42.862499 53.106247 C 42.862499 52.205338 43.592834 51.475002 44.493748 51.475002 C 45.394665 51.475002 46.125 52.205338 46.125 53.106247 Z"/>
        <path id="path7" fill="#f1b81e" stroke="none" d="M 33.890625 56.368748 C 33.890625 57.269665 33.16029 58 32.259373 58 C 31.358459 58 30.628122 57.269665 30.628122 56.368748 C 30.628122 55.467834 31.358459 54.737499 32.259373 54.737499 C 33.16029 54.737499 33.890625 55.467834 33.890625 56.368748 Z"/>
        <path id="path8" fill="#f1b81e" stroke="none" d="M 21.65625 53.106247 C 21.65625 54.007164 20.925915 54.737499 20.025 54.737499 C 19.124084 54.737499 18.393749 54.007164 18.393749 53.106247 C 18.393749 52.205338 19.124084 51.475002 20.025 51.475002 C 20.925915 51.475002 21.65625 52.205338 21.65625 53.106247 Z"/>
        <path id="path9" fill="#f1b81e" stroke="none" d="M 11.325001 43.590622 C 11.325001 44.491539 10.594665 45.22187 9.693749 45.22187 C 8.792835 45.22187 8.0625 44.491539 8.0625 43.590622 C 8.0625 42.689705 8.792835 41.959377 9.693749 41.959377 C 10.594665 41.959377 11.325001 42.689705 11.325001 43.590622 Z"/>
        <path id="path10" fill="#f1b81e" stroke="none" d="M 8.0625 31.900002 C 8.0625 32.800915 7.332164 33.53125 6.43125 33.53125 C 5.530335 33.53125 4.8 32.800915 4.8 31.900002 C 4.8 30.999084 5.530335 30.268749 6.43125 30.268749 C 7.332164 30.268749 8.0625 30.999084 8.0625 31.900002 Z"/>
        <path id="path11" fill="#f1b81e" stroke="none" d="M 11.325001 20.209377 C 11.325001 21.110294 10.594665 21.840622 9.693749 21.840622 C 8.792835 21.840622 8.0625 21.110294 8.0625 20.209377 C 8.0625 19.30846 8.792835 18.578125 9.693749 18.578125 C 10.594665 18.578125 11.325001 19.30846 11.325001 20.209377 Z"/>
        <path id="path12" fill="#f1b81e" stroke="none" d="M 21.65625 10.693752 C 21.65625 11.594662 20.925915 12.324997 20.025 12.324997 C 19.124084 12.324997 18.393749 11.594662 18.393749 10.693752 C 18.393749 9.792835 19.124084 9.0625 20.025 9.0625 C 20.925915 9.0625 21.65625 9.792835 21.65625 10.693752 Z"/>
    </g>
</svg>
